<svg width="100" height="100" viewBox="0 0 100 100" fill="none" xmlns="http://www.w3.org/2000/svg">
<path d="M0 50.0016V100H100V0H0V50.0016ZM80.5865 46.0173C83.1255 46.6517 85.063 47.7798 86.841 49.6203C87.7629 50.6047 89.1269 52.3984 89.2378 52.8265C89.2691 52.9515 84.9208 55.8733 82.2849 57.5091C82.1912 57.5716 81.8084 57.1607 81.3787 56.5248C80.0928 54.6499 78.7444 53.8421 76.6804 53.6999C73.6493 53.4936 71.6806 55.0811 71.7118 57.731C71.7118 58.5091 71.8212 58.9685 72.1399 59.6059C72.8071 60.9872 74.0461 61.8121 77.9335 63.4965C85.0927 66.5745 88.1551 68.6057 90.0581 71.4962C92.1831 74.718 92.6612 79.8616 91.2175 83.6864C89.63 87.8457 85.6942 90.6706 80.1553 91.6081C78.4413 91.9096 74.3774 91.8628 72.5368 91.53C68.5213 90.8159 64.712 88.8316 62.3621 86.2286C61.4403 85.213 59.6481 82.5615 59.7591 82.3693C59.8059 82.3068 60.22 82.0521 60.6809 81.7818L64.3949 79.6413L67.2698 77.9741L67.8729 78.8647C68.7135 80.1506 70.5556 81.9115 71.6665 82.499C74.857 84.1817 79.2382 83.9427 81.3959 82.0068C82.3177 81.1662 82.6974 80.2928 82.6974 79.0069C82.6974 77.8476 82.5568 77.3398 81.9521 76.4679C81.174 75.3586 79.5866 74.4211 75.0773 72.4681C69.9181 70.2462 67.6963 68.865 65.6651 66.6745C64.4902 65.4042 63.3793 63.373 62.9184 61.6746C62.5371 60.2622 62.4418 56.7217 62.7434 55.2936C63.8058 50.2937 67.5682 46.8329 72.9977 45.8017C74.7602 45.4689 78.8569 45.5955 80.585 46.0236L80.5865 46.0173ZM57.1107 50.1891L57.142 54.2827H44.1267V91.2659H34.9208V54.2827H21.9056V50.2672L22.0149 46.1423C22.0618 46.0798 29.9834 46.0486 39.5863 46.0642L57.0623 46.1111L57.1107 50.1891Z" fill="#007ACC"/>
</svg>
